<svg width="40" height="40" viewBox="0 0 40 40" fill="none" xmlns="http://www.w3.org/2000/svg">
<g clip-path="url(#clip0_948_283)">
<rect width="40" height="40" rx="8" fill="white"/>
<path d="M16.493 9.3457H18.979L14.8395 13.4853V10.9992L16.493 9.3457Z" fill="#335390"/>
<path d="M14.839 10.9992V13.4853L10.6877 9.3457H13.1738L14.839 10.9992Z" fill="#274276"/>
<path d="M14.8395 7.68067V5.19458L18.979 9.34587H16.493L14.8395 7.68067Z" fill="#4068B1"/>
<path d="M13.1736 9.34612H10.6875L14.8388 5.19482V7.68091L13.1736 9.34612Z" fill="#31508B"/>
<path d="M14.8385 7.68437L13.1801 9.34277L14.8385 11.0012L16.4969 9.34277L14.8385 7.68437Z" fill="#395C9E"/>
<path d="M26.8592 9.3457H29.3453L25.2057 13.4853V10.9992L26.8592 9.3457Z" fill="#335390"/>
<path d="M25.2059 10.9992V13.4853L21.0546 9.3457H23.5407L25.2059 10.9992Z" fill="#274276"/>
<path d="M25.2057 7.69239V5.19458L29.3453 9.34587H26.8592L25.2057 7.69239Z" fill="#4068B1"/>
<path d="M23.5407 9.34612H21.0546L25.2059 5.19482V7.69264L23.5407 9.34612Z" fill="#31508B"/>
<path d="M25.205 7.68559L23.5466 9.34399L25.205 11.0024L26.8634 9.34399L25.205 7.68559Z" fill="#395C9E"/>
<path d="M21.688 4.1394H24.1858L20.0345 8.2907V5.80461L21.688 4.1394Z" fill="#335390"/>
<path d="M20.0341 5.80461V8.2907L15.8828 4.1394H18.3689L20.0341 5.80461Z" fill="#274276"/>
<path d="M20.0345 2.48608V0L24.1858 4.13957H21.688L20.0345 2.48608Z" fill="#4068B1"/>
<path d="M18.3688 4.13957H15.8827L20.034 0V2.48608L18.3688 4.13957Z" fill="#31508B"/>
<path d="M20.0301 2.48197L18.3717 4.14038L20.0301 5.79879L21.6885 4.14038L20.0301 2.48197Z" fill="#395C9E"/>
<path d="M20.0341 29.0239V40.0002L15.8828 14.4709L17.7708 15.0807L20.0341 29.0239Z" fill="#284379"/>
<path d="M22.2978 15.0807L24.1741 14.4709L20.0345 40.0002V29.0239L22.2978 15.0807Z" fill="#3A5FA2"/>
<path d="M20.0345 12.8057V10.3196L24.1741 14.4709L22.2978 15.0807L20.0345 12.8057Z" fill="#4068B1"/>
<path d="M17.7707 15.0804L15.8827 14.4706L20.034 10.3193V12.8054L17.7707 15.0804Z" fill="#31508B"/>
<path d="M20.0345 12.8057L22.2977 15.0807L20.0345 29.0239L17.7712 15.0807L20.0345 12.8057Z" fill="#395C9E"/>
<path d="M24.9008 28.5193L21.4531 38.4871L25.2643 15.6667L26.9061 16.4993L24.9008 28.5193Z" fill="#527196"/>
<path d="M32.3708 14.8576L34.552 14.541L21.4531 38.4872L24.9008 28.5194L32.3708 14.8576Z" fill="#668BB7"/>
<path d="M30.4246 12.8994L30.4011 10.4016L34.5524 14.5412L32.3712 14.8578L30.4246 12.8994Z" fill="#76A0D4"/>
<path d="M26.9068 16.4996L25.265 15.667L30.4014 10.4016L30.4248 12.8994L26.9068 16.4996Z" fill="#5C7EA7"/>
<path d="M30.4246 12.8997L32.3713 14.858L24.9013 28.5198L26.9066 16.4998L30.4246 12.8997Z" fill="#6A90BE"/>
<path d="M13.0447 16.3705L14.6865 15.5261L18.5212 38.4872L15.0735 28.5194L13.0447 16.3705Z" fill="#719ACC"/>
<path d="M15.074 28.5194L18.5217 38.4872L5.42285 14.541L7.60404 14.8576L15.074 28.5194Z" fill="#4D6B8F"/>
<path d="M9.56201 12.8877L9.57374 10.4016L14.6866 15.5262L13.0449 16.3706L9.56201 12.8877Z" fill="#76A0D4"/>
<path d="M7.6038 14.8578L5.42261 14.5412L9.5739 10.4016L9.56217 12.8877L7.6038 14.8578Z" fill="#5C7EA7"/>
<path d="M9.56232 12.8877L13.0452 16.3706L15.0739 28.5195L7.60394 14.8578L9.56232 12.8877Z" fill="#6A90BE"/>
</g>
<defs>
<clipPath id="clip0_948_283">
<rect width="40" height="40" rx="8" fill="white"/>
</clipPath>
</defs>
</svg>
