<svg width="67" height="67" viewBox="0 0 67 67" fill="none" xmlns="http://www.w3.org/2000/svg">
<path d="M33.8291 66.7458C52.0085 66.7458 66.7458 52.0085 66.7458 33.8291C66.7458 15.6498 52.0085 0.912476 33.8291 0.912476C15.6498 0.912476 0.912476 15.6498 0.912476 33.8291C0.912476 52.0085 15.6498 66.7458 33.8291 66.7458Z" fill="white"/>
<path fill-rule="evenodd" clip-rule="evenodd" d="M29.5887 25H27.4114C26.6332 25 26 25.6334 26 26.4118V39.5882C26 40.3666 26.6332 41 27.4114 41H29.5887C30.3668 41 31 40.3666 31 39.5882V26.4118C31 25.6334 30.3668 25 29.5887 25Z" fill="#155EEF"/>
<path fill-rule="evenodd" clip-rule="evenodd" d="M38.5886 25H36.4114C35.6332 25 35 25.6334 35 26.4118V39.5882C35 40.3666 35.6332 41 36.4114 41H38.5886C39.3668 41 40 40.3666 40 39.5882V26.4118C40 25.6334 39.3668 25 38.5886 25Z" fill="#155EEF"/>
</svg>
