<svg width="67" height="67" viewBox="0 0 67 67" fill="none" xmlns="http://www.w3.org/2000/svg">
<path d="M33.8291 66.7458C52.0085 66.7458 66.7458 52.0085 66.7458 33.8291C66.7458 15.6498 52.0085 0.912476 33.8291 0.912476C15.6498 0.912476 0.912476 15.6498 0.912476 33.8291C0.912476 52.0085 15.6498 66.7458 33.8291 66.7458Z" fill="white"/>
<path d="M40.4831 35.9139C40.404 35.9864 40.1053 36.2964 39.8271 36.5514C38.1959 38.1551 33.9407 40.7801 31.7135 41.5814C31.3753 41.7101 30.5201 41.9826 30.0632 42.0001C29.6254 42.0001 29.2081 41.9101 28.8098 41.7276C28.3134 41.4726 27.9151 41.0714 27.6969 40.5976C27.5565 40.2689 27.3382 39.2851 27.3382 39.2676C27.12 38.1914 27 36.4426 27 34.5101C27 32.6689 27.12 30.9914 27.2987 29.8989C27.3191 29.8814 27.5374 28.6589 27.776 28.2401C28.2138 27.4751 29.069 27.0001 29.9841 27.0001H30.0632C30.6592 27.0189 31.9126 27.4939 31.9126 27.5114C34.0198 28.3139 38.1768 30.8101 39.8475 32.4689C39.8475 32.4689 40.3181 32.8951 40.5226 33.1614C40.8418 33.5439 41 34.0176 41 34.4914C41 35.0201 40.8213 35.5126 40.4831 35.9139Z" fill="#155EEF"/>
</svg>
