<svg width="100" height="100" viewBox="0 0 100 100" fill="none" xmlns="http://www.w3.org/2000/svg">
<path d="M50.4166 92.0833C73.4285 92.0833 92.0833 73.4285 92.0833 50.4167C92.0833 27.4048 73.4285 8.75 50.4166 8.75C27.4048 8.75 8.74997 27.4048 8.74997 50.4167C8.74997 73.4285 27.4048 92.0833 50.4166 92.0833Z" fill="white"/>
<path d="M59.9373 43.7226L50.8464 38.4875C48.5893 37.1708 45.8621 37.1708 43.605 38.4875C41.348 39.8041 40 42.1238 40 44.7571V55.2586C40 57.8605 41.348 60.2116 43.605 61.5282C44.7335 62.1865 45.9875 62.5 47.21 62.5C48.464 62.5 49.6865 62.1865 50.815 61.5282L59.906 56.2931C62.163 54.9765 63.511 52.6567 63.511 50.0235C63.5737 47.3903 62.2257 45.0392 59.9373 43.7226Z" fill="#155EEF"/>
</svg>
