<svg width="96" height="96" viewBox="0 0 96 96" fill="none" xmlns="http://www.w3.org/2000/svg">
<path fill-rule="evenodd" clip-rule="evenodd" d="M61.1372 9H29.5371C16.6171 9 7.53712 17.72 7.53712 30.2V42.8C7.53712 43.4628 8.07436 44 8.73712 44H82.3372C83 44 83.5372 43.4628 83.5372 42.8V30.2C83.5372 17.52 74.5372 9 61.1372 9Z" fill="#D1E0FF"/>
<path fill-rule="evenodd" clip-rule="evenodd" d="M8.73712 50C8.07436 50 7.53712 50.5372 7.53712 51.2V63.8C7.53712 76.48 16.3771 85 29.5371 85H37.9482C38.8787 85 39.4672 83.978 39.0885 83.128C38.0594 80.8184 37.4971 78.258 37.4971 75.6C37.4971 68.04 41.6172 61.84 47.8172 58.92C48.8584 56.6552 50.3232 54.4748 52.2008 52.6332C53.0672 51.7832 52.5 50 51.286 50H8.73712Z" fill="#D1E0FF"/>
<path fill-rule="evenodd" clip-rule="evenodd" d="M63.9372 31.6016H45.9372C44.2972 31.6016 42.9372 30.2416 42.9372 28.6016C42.9372 26.9616 44.2972 25.6016 45.9372 25.6016H63.9372C65.6172 25.6016 66.9372 26.9616 66.9372 28.6016C66.9372 30.2416 65.6172 31.6016 63.9372 31.6016ZM29.1372 31.6016H27.1372C25.4972 31.6016 24.1372 30.2416 24.1372 28.6016C24.1372 26.9616 25.4972 25.6016 27.1372 25.6016H29.1372C30.8172 25.6016 32.1372 26.9616 32.1372 28.6016C32.1372 30.2416 30.8172 31.6016 29.1372 31.6016Z" fill="#155EEF"/>
<path fill-rule="evenodd" clip-rule="evenodd" d="M29.1372 68.4016H27.1372C25.4972 68.4016 24.1372 67.0416 24.1372 65.4016C24.1372 63.7616 25.4972 62.4016 27.1372 62.4016H29.1372C30.8172 62.4016 32.1372 63.7616 32.1372 65.4016C32.1372 67.0416 30.8172 68.4016 29.1372 68.4016Z" fill="#155EEF"/>
<path fill-rule="evenodd" clip-rule="evenodd" d="M67.0624 60.1992C62.0424 60.1992 60.4624 65.6552 60.4624 67.1992C60.4624 68.8552 59.1184 70.1992 57.4624 70.1992C54.1304 70.1992 52.0624 72.2672 52.0624 75.5992C52.0624 77.8312 53.1784 79.6432 55.0464 80.4432C55.5144 80.5872 56.6904 80.9792 57.0784 80.9992H77.0624C77.7264 80.9992 78.3544 80.9992 79.3184 80.5192C81.1504 79.7232 82.4624 77.5992 82.4624 75.5992C82.4624 72.2672 80.3944 70.1992 77.0624 70.1992C75.4064 70.1992 74.0624 68.8552 74.0624 67.1992C74.0624 66.1112 72.7704 60.1992 67.0624 60.1992ZM77.0624 86.9992H57.0624C55.7744 86.9992 54.3864 86.5352 52.9144 86.0432C48.5984 84.2072 46.0624 80.2392 46.0624 75.5992C46.0624 69.9152 49.6144 65.5712 54.8104 64.4712C56.0144 59.5952 60.2664 54.1992 67.0624 54.1992C74.6104 54.1992 78.5304 59.9112 79.6904 64.4672C84.9024 65.5592 88.4624 69.9072 88.4624 75.5992C88.4624 80.0312 85.7384 84.2872 81.8424 85.9552C79.7704 86.9992 78.0104 86.9992 77.0624 86.9992Z" fill="#155EEF"/>
</svg>
