<svg width="96" height="96" viewBox="0 0 96 96" fill="none" xmlns="http://www.w3.org/2000/svg">
<path fill-rule="evenodd" clip-rule="evenodd" d="M31.3053 10C24.9315 10 19.5982 12.27 15.868 16.2708C12.1522 20.256 10.1738 25.7988 10.1738 32.1044V34.9688H86.17V32.1044C86.17 25.8016 84.2028 20.2585 80.492 16.272C76.766 12.2692 71.4324 10 65.0424 10H31.3053Z" fill="#D1E0FF"/>
<path fill-rule="evenodd" clip-rule="evenodd" d="M10.1738 63.8916V40.9688H86.17V63.8916C86.17 70.1944 84.2028 75.7376 80.4916 79.7244C76.7648 83.7272 71.4304 85.9963 65.0384 85.9963H31.3053C24.9153 85.9963 19.5809 83.7268 15.8539 79.7244C12.142 75.738 10.1738 70.1948 10.1738 63.8916Z" fill="#D1E0FF"/>
<path fill-rule="evenodd" clip-rule="evenodd" d="M25.3301 23.2031C23.6732 23.2031 22.3301 24.5463 22.3301 26.2031C22.3301 27.86 23.6732 29.2031 25.3301 29.2031H25.5519C27.2088 29.2031 28.5519 27.86 28.5519 26.2031C28.5519 24.5463 27.2088 23.2031 25.5519 23.2031H25.3301ZM35.2721 23.2031C33.6153 23.2031 32.2721 24.5463 32.2721 26.2031C32.2721 27.86 33.6153 29.2031 35.2721 29.2031H35.494C37.1508 29.2031 38.494 27.86 38.494 26.2031C38.494 24.5463 37.1508 23.2031 35.494 23.2031H35.2721ZM45.218 23.2031C43.5612 23.2031 42.218 24.5463 42.218 26.2031C42.218 27.86 43.5612 29.2031 45.218 29.2031H45.4396C47.0968 29.2031 48.4396 27.86 48.4396 26.2031C48.4396 24.5463 47.0968 23.2031 45.4396 23.2031H45.218Z" fill="#155EEF"/>
<path fill-rule="evenodd" clip-rule="evenodd" d="M58.5032 67.7568L62.2532 64.1552C62.9868 63.4548 63.4648 62.5136 63.5944 61.502C63.754 60.3124 63.4388 59.1376 62.7088 58.1892C61.9828 57.2368 60.9264 56.6256 59.7668 56.4736L54.542 55.7248L52.2 51.0484C51.774 50.2112 51.1032 49.5404 50.262 49.0996C49.1872 48.54 47.9608 48.436 46.8084 48.7956C45.656 49.1588 44.7148 49.9516 44.1332 51.0632L41.7984 55.7212L36.5737 56.4736C35.5769 56.6144 34.6468 57.0884 33.9538 57.8076C32.2493 59.586 32.2975 62.4284 34.0761 64.1552L37.8373 67.7604L36.9442 72.8964C36.796 73.86 36.959 74.8604 37.4148 75.72C38.2301 77.2468 39.7975 78.1176 41.4096 78.1176C42.1136 78.1176 42.8288 77.9508 43.4884 77.5988L48.172 75.1716L52.8372 77.5876C53.7156 78.0508 54.69 78.2064 55.6608 78.0508C58.114 77.658 59.7888 75.3384 59.3924 72.8484L58.5032 67.7568ZM49.8184 58.6976L48.1732 55.418L46.5244 58.7084C45.8536 60.0388 44.5788 60.9504 43.1116 61.1504L39.517 61.6656L42.1072 64.152C43.182 65.1748 43.6748 66.672 43.4116 68.1504L42.7964 71.7004L46.0908 69.992C47.384 69.314 48.9476 69.3064 50.2668 69.9956L53.55 71.6964L52.9312 68.1468C52.668 66.6904 53.1536 65.1896 54.2392 64.1484L56.8256 61.6656L53.2128 61.1468C51.7492 60.9392 50.478 60.024 49.8184 58.6976Z" fill="#155EEF"/>
</svg>
