<svg width="96" height="96" viewBox="0 0 96 96" fill="none" xmlns="http://www.w3.org/2000/svg">
<path fill-rule="evenodd" clip-rule="evenodd" d="M31.1315 10C24.7577 10 19.4244 12.27 15.6942 16.2708C11.9784 20.256 10 25.7988 10 32.1044V34.9688H85.9962V32.1044C85.9962 25.8016 84.029 20.2585 80.3182 16.272C76.5922 12.2692 71.2586 10 64.8686 10H31.1315Z" fill="#D1E0FF"/>
<path fill-rule="evenodd" clip-rule="evenodd" d="M10 63.8916V40.9688H85.9962V63.8916C85.9962 70.1944 84.029 75.7376 80.3178 79.7244C76.591 83.7272 71.2566 85.9963 64.8646 85.9963H31.1315C24.7415 85.9963 19.4071 83.7268 15.6801 79.7244C11.9682 75.738 10 70.1948 10 63.8916Z" fill="#D1E0FF"/>
<path fill-rule="evenodd" clip-rule="evenodd" d="M46.7828 63.4073C48.5561 61.154 51.2095 59.874 54.0495 59.874C55.2976 59.874 56.4967 60.1199 57.6043 60.5779C57.8164 60.6656 58.0441 60.4731 57.9728 60.2549C57.5468 58.9511 56.8953 57.6996 56.0095 56.5807C53.8895 53.874 50.7028 52.2073 47.3028 52.0073C43.9027 51.8207 40.5561 53.0873 38.1427 55.5007C34.6094 59.0473 33.6494 64.4873 35.7294 69.0073C35.9027 69.4473 36.5027 70.514 36.9694 71.3407C37.0894 71.5273 37.0761 71.754 36.9427 71.9273C36.6627 72.3273 36.3161 72.834 36.0361 73.2473C35.6761 73.794 35.6494 74.4873 35.9561 75.0607C36.2627 75.634 36.8494 75.994 37.5027 75.994H46.5961C46.7868 75.994 46.9776 75.9879 47.1683 75.9787C47.4035 75.9673 47.5071 75.6733 47.3437 75.5039C47.2195 75.3751 47.0984 75.2407 46.9828 75.1007C44.1694 71.754 44.0894 66.834 46.7828 63.4073Z" fill="#155EEF"/>
<path fill-rule="evenodd" clip-rule="evenodd" d="M60.0704 73.3473C60.3264 72.9033 60.6531 72.3206 60.7424 72.0966C61.9171 69.546 61.3771 66.498 59.3984 64.514C58.0477 63.158 56.1771 62.4406 54.2677 62.558C52.3584 62.6686 50.5797 63.602 49.3864 65.1166C47.4251 67.6033 47.4864 71.1673 49.5291 73.594C50.8131 75.1166 52.6837 75.99 54.6637 75.99H54.6824C55.2824 75.9873 57.9464 75.9886 59.5211 75.99C59.9824 75.99 60.4037 75.7366 60.6224 75.3313C60.8411 74.922 60.8184 74.4273 60.5597 74.0366C60.4091 73.814 60.2197 73.542 60.0704 73.3473Z" fill="white"/>
<path fill-rule="evenodd" clip-rule="evenodd" d="M25.3301 23.2031C23.6732 23.2031 22.3301 24.5463 22.3301 26.2031C22.3301 27.86 23.6732 29.2031 25.3301 29.2031H25.5519C27.2088 29.2031 28.5519 27.86 28.5519 26.2031C28.5519 24.5463 27.2088 23.2031 25.5519 23.2031H25.3301ZM35.2721 23.2031C33.6153 23.2031 32.2721 24.5463 32.2721 26.2031C32.2721 27.86 33.6153 29.2031 35.2721 29.2031H35.494C37.1508 29.2031 38.494 27.86 38.494 26.2031C38.494 24.5463 37.1508 23.2031 35.494 23.2031H35.2721ZM45.218 23.2031C43.5612 23.2031 42.218 24.5463 42.218 26.2031C42.218 27.86 43.5612 29.2031 45.218 29.2031H45.4396C47.0968 29.2031 48.4396 27.86 48.4396 26.2031C48.4396 24.5463 47.0968 23.2031 45.4396 23.2031H45.218Z" fill="#155EEF"/>
</svg>
