<svg width="96" height="96" viewBox="0 0 96 96" fill="none" xmlns="http://www.w3.org/2000/svg">
<path fill-rule="evenodd" clip-rule="evenodd" d="M63.6 9.6875H32C19.04 9.6875 10 18.4075 10 30.8875V43.4876C10 44.1504 10.5372 44.6876 11.2 44.6876H84.8C85.4628 44.6876 86 44.1504 86 43.4876V30.8875C86 18.2075 77 9.6875 63.6 9.6875Z" fill="#D1E0FF"/>
<path fill-rule="evenodd" clip-rule="evenodd" d="M48.52 63.7676C48.44 60.1276 48.36 56.3676 51.92 52.8076C52.6064 52.1208 52.232 50.6876 51.2608 50.6876H11.2C10.5372 50.6876 10 51.2248 10 51.8876V64.4876C10 77.1676 18.84 85.6876 32 85.6876H52.2448C53.3108 85.6876 53.8756 84.3728 53.2172 83.5344C50.5056 80.08 48.6 75.6936 48.6 70.2876C48.6 67.2076 48.56 65.1676 48.52 63.7676Z" fill="#D1E0FF"/>
<path fill-rule="evenodd" clip-rule="evenodd" d="M66.4 32.2891H48.4C46.76 32.2891 45.4 30.9291 45.4 29.2891C45.4 27.6491 46.76 26.2891 48.4 26.2891H66.4C68.04 26.2891 69.4 27.6491 69.4 29.2891C69.4 30.9291 68.04 32.2891 66.4 32.2891ZM31.6001 32.2891H29.6001C27.9601 32.2891 26.6001 30.9291 26.6001 29.2891C26.6001 27.6491 27.9601 26.2891 29.6001 26.2891H31.6001C33.2401 26.2891 34.6001 27.6491 34.6001 29.2891C34.6001 30.9291 33.2401 32.2891 31.6001 32.2891Z" fill="#155EEF"/>
<path fill-rule="evenodd" clip-rule="evenodd" d="M31.6001 69.0892H29.6001C27.9601 69.0892 26.6001 67.7292 26.6001 66.0892C26.6001 64.4492 27.9601 63.0892 29.6001 63.0892H31.6001C33.2401 63.0892 34.6001 64.4492 34.6001 66.0892C34.6001 67.7292 33.2401 69.0892 31.6001 69.0892Z" fill="#155EEF"/>
<path fill-rule="evenodd" clip-rule="evenodd" d="M79.9204 63.0908C79.8924 64.5548 79.8444 66.7508 79.8444 70.1148C79.8444 76.0068 73.6164 79.1388 71.2484 80.1148C68.8764 79.1388 62.6484 76.0068 62.6484 70.1148C62.6484 66.9228 62.6044 64.7828 62.5724 63.3188C62.5604 62.6348 62.5404 62.1268 62.5364 61.7428C64.6804 60.7588 70.1524 58.8388 71.1284 58.7108C72.3444 58.8428 78.1084 60.8628 79.9524 61.6908C79.9484 62.0388 79.9324 62.4908 79.9204 63.0908ZM71.2484 52.7148C69.3124 52.7148 59.5244 55.9948 57.9204 57.5948C56.4844 59.0348 56.5044 60.1468 56.5764 63.4428C56.6044 64.8788 56.6484 66.9828 56.6484 70.1148C56.6484 81.7908 69.7964 86.0068 70.3564 86.1788C70.6484 86.2708 70.9444 86.3148 71.2484 86.3148C71.5484 86.3148 71.8444 86.2708 72.1364 86.1788C72.6964 86.0068 85.8444 81.7908 85.8444 70.1148C85.8444 66.8108 85.8924 64.6508 85.9204 63.2108C85.9844 60.0028 86.0044 59.0308 84.5684 57.5908C82.9724 55.9988 73.1844 52.7148 71.2484 52.7148Z" fill="#155EEF"/>
</svg>
