<svg width="18" height="18" viewBox="0 0 18 18" fill="none" xmlns="http://www.w3.org/2000/svg">
<path d="M4.56002 7.64062C4.09884 8.35867 3.88066 9.20587 3.93758 10.0574C3.94122 10.9032 4.10176 11.7409 4.41116 12.5275C4.76361 13.5038 5.31381 14.397 6.02673 15.1515C6.49885 15.7681 7.35918 15.9323 8.0247 15.5317C8.75655 15.1537 9.62272 15.1377 10.3685 15.4886C11.1266 15.9601 12.1219 15.7543 12.6298 15.0202C13.2282 14.3437 13.6945 13.5622 14.0061 12.715C14.1097 12.4173 14.1112 12.4217 13.8404 12.2604C13.1413 11.8802 12.6488 11.2075 12.4978 10.426C12.254 9.35325 12.6802 8.23897 13.5784 7.60417C13.7412 7.47865 13.7755 7.39182 13.6347 7.23493C12.975 6.44465 11.9432 6.06886 10.9297 6.24982C10.5421 6.31768 10.1649 6.43444 9.80737 6.59863C9.34687 6.82118 8.80837 6.81316 8.35447 6.576C7.00746 5.87038 5.34372 6.33739 4.56002 7.64062Z" stroke="white" stroke-width="1.5" stroke-linecap="round" stroke-linejoin="round"/>
<path fill-rule="evenodd" clip-rule="evenodd" d="M9.01674 5.23523C8.82916 3.66125 9.91209 2.34632 11.4751 2.25C11.7845 3.87871 10.6805 5.20969 9.02401 5.2345C9.02184 5.2345 9.01891 5.23523 9.01674 5.23523Z" stroke="white" stroke-width="1.5" stroke-linecap="round" stroke-linejoin="round"/>
</svg>
