<svg width="18" height="18" viewBox="0 0 18 18" fill="none" xmlns="http://www.w3.org/2000/svg">
<path fill-rule="evenodd" clip-rule="evenodd" d="M3.12406 2.51884C3.62381 1.98196 4.33099 1.6875 5.14933 1.6875H9.04718C9.76875 1.6875 10.4048 1.91415 10.8896 2.33927C11.3728 2.76285 11.6705 3.35243 11.7738 4.01874C11.8214 4.32573 11.6111 4.61318 11.3041 4.66077C10.9971 4.70837 10.7096 4.49808 10.6621 4.19109C10.5937 3.75008 10.4069 3.41221 10.148 3.18516C9.89078 2.95965 9.52733 2.8125 9.04718 2.8125H5.14933C4.61072 2.8125 4.21319 2.99994 3.9475 3.28537C3.67768 3.57522 3.50244 4.01144 3.50244 4.57536V9.59655C3.50244 10.1103 3.64857 10.5186 3.87827 10.8046C4.10434 11.0861 4.43667 11.2817 4.88046 11.3368C5.18876 11.375 5.4077 11.656 5.36946 11.9642C5.33123 12.2725 5.05031 12.4915 4.74201 12.4532C4.02345 12.3641 3.42014 12.0308 3.00115 11.5091C2.58579 10.9919 2.37744 10.3231 2.37744 9.59655V4.57536C2.37744 3.77773 2.62842 3.05128 3.12406 2.51884Z" fill="#667085"/>
<path fill-rule="evenodd" clip-rule="evenodd" d="M6.92978 6.35208C7.42969 5.8159 8.1369 5.52246 8.955 5.52246H12.8516C13.6715 5.52246 14.3791 5.81564 14.8788 6.35239C15.3743 6.8846 15.6234 7.61055 15.6234 8.40705V13.4282C15.6234 14.2247 15.3743 14.9507 14.8787 15.4829C14.3788 16.0197 13.6712 16.3128 12.8509 16.3128H8.955C8.13495 16.3128 7.42746 16.0196 6.92777 15.4829C6.43231 14.9507 6.18311 14.2247 6.18311 13.4282V8.40705C6.18311 7.60973 6.43393 6.88391 6.92978 6.35208ZM7.7526 7.11926C7.48317 7.40826 7.30811 7.84343 7.30811 8.40705V13.4282C7.30811 13.9926 7.4825 14.4277 7.75118 14.7163C8.01563 15.0004 8.41283 15.1878 8.955 15.1878H12.8509C13.3935 15.1878 13.7909 15.0003 14.0553 14.7163C14.324 14.4277 14.4984 13.9926 14.4984 13.4282V8.40705C14.4984 7.84268 14.324 7.40756 14.0554 7.11895C13.7909 6.83489 13.3937 6.64746 12.8516 6.64746H8.955C8.41553 6.64746 8.01803 6.83462 7.7526 7.11926Z" fill="#667085"/>
</svg>
