<svg width="40" height="40" viewBox="0 0 40 40" fill="none" xmlns="http://www.w3.org/2000/svg">
<path fill-rule="evenodd" clip-rule="evenodd" d="M31.6058 19.9062C33.709 21.124 34.969 23.644 34.2716 26.352C33.743 28.4098 32.008 30.0363 29.9225 30.4465C29.6128 30.5082 29.3063 30.5438 29.008 30.5568C27.4933 30.6217 26.3518 29.1817 26.7053 27.7077L28.2183 21.3818C28.5766 19.8867 30.276 19.1358 31.6058 19.9062Z" stroke="#CA8504" stroke-width="2.5" stroke-linecap="round" stroke-linejoin="round"/>
<path d="M19.1836 34.956C23.0608 34.956 25.8078 35.7523 28.5856 30.5598" stroke="#CA8504" stroke-width="2.5" stroke-linecap="round" stroke-linejoin="round"/>
<path fill-rule="evenodd" clip-rule="evenodd" d="M8.39225 19.9062C6.28903 21.124 5.02905 23.644 5.72635 26.352C6.25498 28.4099 7.9901 30.0364 10.0755 30.4465C10.3852 30.5082 10.6917 30.5439 10.99 30.5569C12.5046 30.6217 13.6462 29.1817 13.2927 27.7077L11.7798 21.3819C11.4214 19.8867 9.72196 19.1359 8.39225 19.9062Z" stroke="#CA8504" stroke-width="2.5" stroke-linecap="round" stroke-linejoin="round"/>
<path d="M32.253 20.3403V17.2545C32.253 10.4875 26.7672 5 19.9985 5C13.23 5 7.74414 10.4875 7.74414 17.2545V20.3403" stroke="#CA8504" stroke-width="2.5" stroke-linecap="round" stroke-linejoin="round"/>
</svg>
