<svg width="14" height="14" viewBox="0 0 14 14" fill="none" xmlns="http://www.w3.org/2000/svg">
<path fill-rule="evenodd" clip-rule="evenodd" d="M6.99971 2.30029C6.50341 2.30029 6.09385 2.70785 6.09385 3.21867C6.09385 3.73017 6.50353 4.13761 6.99971 4.13761C7.49595 4.13761 7.90563 3.73017 7.90563 3.21867C7.90563 2.70785 7.49607 2.30029 6.99971 2.30029ZM5.21883 3.21867C5.21883 2.23229 6.01248 1.42529 6.99971 1.42529C7.98694 1.42529 8.78063 2.23229 8.78063 3.21867C8.78063 4.2055 7.98706 5.01261 6.99971 5.01261C6.01236 5.01261 5.21883 4.2055 5.21883 3.21867ZM3.09339 9.06599C2.59705 9.06599 2.1875 9.47357 2.1875 9.98439C2.1875 10.4959 2.59717 10.9033 3.09339 10.9033C3.58961 10.9033 3.99927 10.4959 3.99927 9.98439C3.99927 9.47357 3.58973 9.06599 3.09339 9.06599ZM1.3125 9.98439C1.3125 8.99798 2.10615 8.19099 3.09339 8.19099C4.08063 8.19099 4.87428 8.99798 4.87428 9.98439C4.87428 10.9712 4.08074 11.7783 3.09339 11.7783C2.10603 11.7783 1.3125 10.9712 1.3125 9.98439ZM10.9066 9.06599C10.4103 9.06599 10.0007 9.47357 10.0007 9.98439C10.0007 10.4959 10.4104 10.9033 10.9066 10.9033C11.4028 10.9033 11.8125 10.4959 11.8125 9.98439C11.8125 9.47357 11.4029 9.06599 10.9066 9.06599ZM9.12573 9.98439C9.12573 8.99798 9.91935 8.19099 10.9066 8.19099C11.8939 8.19099 12.6875 8.99798 12.6875 9.98439C12.6875 10.9712 11.894 11.7783 10.9066 11.7783C9.91923 11.7783 9.12573 10.9712 9.12573 9.98439Z" fill="#667085"/>
<path fill-rule="evenodd" clip-rule="evenodd" d="M6.0758 3.10658C6.14843 3.33703 6.0205 3.58273 5.79005 3.65536C4.13548 4.17683 2.92798 5.73809 2.92798 7.58609C2.92798 7.94029 2.97114 8.27892 3.05303 8.60903C3.1112 8.84359 2.96824 9.08083 2.73372 9.13899C2.49921 9.1972 2.26193 9.05423 2.20376 8.81973C2.10516 8.42224 2.05298 8.01286 2.05298 7.58609C2.05298 5.34886 3.51523 3.45489 5.52703 2.82083C5.75748 2.7482 6.00318 2.87613 6.0758 3.10658Z" fill="#667085"/>
<path fill-rule="evenodd" clip-rule="evenodd" d="M10.3259 10.6832C10.4884 10.862 10.4751 11.1387 10.2964 11.3012C9.42427 12.0935 8.26642 12.575 6.99866 12.575C5.73172 12.575 4.57811 12.0983 3.70597 11.3115C3.52656 11.1497 3.51233 10.873 3.67418 10.6936C3.83603 10.5142 4.11267 10.4999 4.29208 10.6618C5.00908 11.3086 5.95572 11.7 6.99866 11.7C8.04084 11.7 8.99086 11.3051 9.70795 10.6536C9.88674 10.4911 10.1635 10.5043 10.3259 10.6832Z" fill="#667085"/>
<path fill-rule="evenodd" clip-rule="evenodd" d="M7.9277 3.10549C8.0009 2.87523 8.24695 2.74794 8.4772 2.82117C10.4875 3.46056 11.9445 5.34888 11.9445 7.5861C11.9445 8.00668 11.8924 8.42219 11.7933 8.816C11.7344 9.05032 11.4966 9.19248 11.2623 9.13356C11.028 9.07459 10.8858 8.83682 10.9448 8.60255C11.0262 8.27892 11.0695 7.9351 11.0695 7.5861C11.0695 5.73808 9.86693 4.18138 8.21201 3.65501C7.98171 3.58178 7.85443 3.33575 7.9277 3.10549Z" fill="#667085"/>
</svg>
